<svg width="247" height="38" viewBox="0 0 247 38" fill="none" xmlns="http://www.w3.org/2000/svg">
<g clip-path="url(#clip0_3715_24)">
<path d="M37.0025 3.69091C33.2628 3.90351 25.8298 4.67734 21.2412 7.49101C20.9245 7.68515 20.745 8.03037 20.745 8.39131V33.2652C20.745 34.0548 21.6069 34.5538 22.3337 34.1874C27.0547 31.8071 33.8824 31.1577 37.2584 30.98C38.411 30.9191 39.307 29.9936 39.307 28.8841V5.78955C39.3077 4.5789 38.2595 3.61982 37.0025 3.69091ZM18.0658 7.49101C13.4779 4.67734 6.04492 3.9042 2.30523 3.69091C1.04821 3.61982 0 4.5789 0 5.78955V28.8848C0 29.9949 0.896024 30.9205 2.04864 30.9807C5.42596 31.1584 12.257 31.8085 16.9781 34.1901C17.7028 34.5559 18.562 34.0575 18.562 33.27V8.379C18.562 8.01738 18.3832 7.68584 18.0658 7.49101Z" fill="#28A745"/>
</g>
<path d="M52.3799 30H50.0557V10.0117H61.1983V12.0762H52.3799V19.3906H60.6651V21.4551H52.3799V30ZM66.4483 30H64.1788V15.0156H66.4483V30ZM63.9874 10.9551C63.9874 10.4355 64.115 10.0573 64.3702 9.82031C64.6254 9.57422 64.9444 9.45117 65.3272 9.45117C65.6918 9.45117 66.0062 9.57422 66.2706 9.82031C66.5349 10.0664 66.6671 10.4447 66.6671 10.9551C66.6671 11.4655 66.5349 11.8483 66.2706 12.1035C66.0062 12.3496 65.6918 12.4727 65.3272 12.4727C64.9444 12.4727 64.6254 12.3496 64.3702 12.1035C64.115 11.8483 63.9874 11.4655 63.9874 10.9551ZM81.5147 30V20.3066C81.5147 19.0853 81.2367 18.1738 80.6807 17.5723C80.1247 16.9707 79.2543 16.6699 78.0694 16.6699C76.5017 16.6699 75.3533 17.0938 74.6241 17.9414C73.8949 18.7891 73.5303 20.1882 73.5303 22.1387V30H71.2608V15.0156H73.1065L73.4756 17.0664H73.585C74.0499 16.3281 74.7016 15.7585 75.5401 15.3574C76.3786 14.9473 77.3129 14.7422 78.3428 14.7422C80.1475 14.7422 81.5056 15.1797 82.4171 16.0547C83.3285 16.9206 83.7842 18.3105 83.7842 20.2246V30H81.5147ZM97.6749 30L97.2237 27.8672H97.1143C96.3669 28.806 95.6195 29.444 94.8721 29.7812C94.1339 30.1094 93.2087 30.2734 92.0967 30.2734C90.6111 30.2734 89.4444 29.8906 88.5967 29.125C87.7582 28.3594 87.3389 27.2702 87.3389 25.8574C87.3389 22.8314 89.7589 21.2454 94.5987 21.0996L97.1417 21.0176V20.0879C97.1417 18.9121 96.8865 18.0462 96.376 17.4902C95.8747 16.9251 95.0681 16.6426 93.9561 16.6426C92.7074 16.6426 91.2947 17.0254 89.7178 17.791L89.0206 16.0547C89.7589 15.6536 90.5655 15.3392 91.4405 15.1113C92.3246 14.8835 93.2087 14.7695 94.0928 14.7695C95.8793 14.7695 97.2009 15.166 98.0577 15.959C98.9236 16.752 99.3565 18.0234 99.3565 19.7734V30H97.6749ZM92.5479 28.4004C93.9607 28.4004 95.0681 28.013 95.8702 27.2383C96.6814 26.4635 97.087 25.3789 97.087 23.9844V22.6309L94.8174 22.7266C93.0128 22.7904 91.7094 23.0729 90.9073 23.5742C90.1143 24.0664 89.7178 24.8366 89.7178 25.8848C89.7178 26.7051 89.9639 27.3294 90.4561 27.7578C90.9574 28.1862 91.6547 28.4004 92.5479 28.4004ZM114.3 30V20.3066C114.3 19.0853 114.022 18.1738 113.466 17.5723C112.91 16.9707 112.039 16.6699 110.855 16.6699C109.287 16.6699 108.138 17.0938 107.409 17.9414C106.68 18.7891 106.315 20.1882 106.315 22.1387V30H104.046V15.0156H105.892L106.261 17.0664H106.37C106.835 16.3281 107.487 15.7585 108.325 15.3574C109.164 14.9473 110.098 14.7422 111.128 14.7422C112.933 14.7422 114.291 15.1797 115.202 16.0547C116.114 16.9206 116.569 18.3105 116.569 20.2246V30H114.3ZM127.233 30.2734C125.064 30.2734 123.383 29.6081 122.189 28.2773C121.004 26.9375 120.411 25.0462 120.411 22.6035C120.411 20.097 121.013 18.1602 122.216 16.793C123.428 15.4258 125.151 14.7422 127.384 14.7422C128.104 14.7422 128.824 14.8197 129.544 14.9746C130.264 15.1296 130.829 15.3118 131.239 15.5215L130.542 17.4492C130.041 17.2487 129.494 17.0846 128.901 16.957C128.309 16.8203 127.785 16.752 127.329 16.752C124.285 16.752 122.763 18.6934 122.763 22.5762C122.763 24.4173 123.132 25.8301 123.87 26.8145C124.618 27.7988 125.72 28.291 127.179 28.291C128.427 28.291 129.708 28.0221 131.021 27.4844V29.4941C130.018 30.0137 128.756 30.2734 127.233 30.2734ZM140.919 30.2734C138.704 30.2734 136.954 29.599 135.669 28.25C134.393 26.901 133.755 25.028 133.755 22.6309C133.755 20.2155 134.347 18.2969 135.532 16.875C136.726 15.4531 138.326 14.7422 140.331 14.7422C142.209 14.7422 143.694 15.362 144.788 16.6016C145.882 17.832 146.429 19.459 146.429 21.4824V22.918H136.107C136.152 24.6771 136.594 26.0124 137.433 26.9238C138.28 27.8353 139.47 28.291 141.001 28.291C142.614 28.291 144.209 27.9538 145.786 27.2793V29.3027C144.984 29.6491 144.223 29.8952 143.503 30.041C142.792 30.196 141.931 30.2734 140.919 30.2734ZM140.304 16.6426C139.101 16.6426 138.139 17.0345 137.419 17.8184C136.708 18.6022 136.289 19.6868 136.161 21.0723H143.995C143.995 19.6413 143.676 18.5475 143.038 17.791C142.4 17.0254 141.489 16.6426 140.304 16.6426Z" fill="#28A745"/>
<path d="M159.056 30V10.0117H161.38V27.8945H170.198V30H159.056ZM179.591 30.2734C177.376 30.2734 175.626 29.599 174.341 28.25C173.065 26.901 172.427 25.028 172.427 22.6309C172.427 20.2155 173.019 18.2969 174.204 16.875C175.398 15.4531 176.998 14.7422 179.003 14.7422C180.881 14.7422 182.366 15.362 183.46 16.6016C184.554 17.832 185.101 19.459 185.101 21.4824V22.918H174.778C174.824 24.6771 175.266 26.0124 176.105 26.9238C176.952 27.8353 178.142 28.291 179.673 28.291C181.286 28.291 182.881 27.9538 184.458 27.2793V29.3027C183.656 29.6491 182.895 29.8952 182.175 30.041C181.464 30.196 180.603 30.2734 179.591 30.2734ZM178.976 16.6426C177.773 16.6426 176.811 17.0345 176.091 17.8184C175.38 18.6022 174.961 19.6868 174.833 21.0723H182.667C182.667 19.6413 182.348 18.5475 181.71 17.791C181.072 17.0254 180.161 16.6426 178.976 16.6426ZM199.183 27.9902H199.06C198.011 29.5124 196.444 30.2734 194.357 30.2734C192.397 30.2734 190.87 29.6035 189.776 28.2637C188.692 26.9238 188.149 25.0189 188.149 22.5488C188.149 20.0788 188.696 18.1602 189.79 16.793C190.884 15.4258 192.406 14.7422 194.357 14.7422C196.389 14.7422 197.948 15.4805 199.032 16.957H199.21L199.114 15.877L199.06 14.8242V8.72656H201.329V30H199.483L199.183 27.9902ZM194.644 28.373C196.193 28.373 197.314 27.9538 198.007 27.1152C198.709 26.2676 199.06 24.9049 199.06 23.0273V22.5488C199.06 20.4251 198.704 18.9121 197.993 18.0098C197.291 17.0983 196.166 16.6426 194.616 16.6426C193.286 16.6426 192.265 17.1621 191.554 18.2012C190.852 19.2311 190.501 20.6895 190.501 22.5762C190.501 24.4902 190.852 25.9349 191.554 26.9102C192.256 27.8854 193.286 28.373 194.644 28.373ZM218.419 15.0156V16.4512L215.644 16.7793C215.899 17.0983 216.127 17.5176 216.327 18.0371C216.528 18.5475 216.628 19.1263 216.628 19.7734C216.628 21.2409 216.127 22.4121 215.124 23.2871C214.121 24.1621 212.745 24.5996 210.995 24.5996C210.549 24.5996 210.129 24.5632 209.737 24.4902C208.771 25.0007 208.288 25.6432 208.288 26.418C208.288 26.8281 208.457 27.1335 208.794 27.334C209.131 27.5254 209.71 27.6211 210.53 27.6211H213.183C214.805 27.6211 216.049 27.9629 216.915 28.6465C217.79 29.3301 218.228 30.3236 218.228 31.627C218.228 33.2858 217.562 34.5482 216.232 35.4141C214.901 36.2891 212.959 36.7266 210.407 36.7266C208.448 36.7266 206.935 36.362 205.868 35.6328C204.811 34.9036 204.282 33.8737 204.282 32.543C204.282 31.6315 204.574 30.8431 205.157 30.1777C205.741 29.5124 206.561 29.0612 207.618 28.8242C207.235 28.651 206.912 28.3822 206.648 28.0176C206.392 27.653 206.265 27.2292 206.265 26.7461C206.265 26.1992 206.411 25.7207 206.702 25.3105C206.994 24.9004 207.454 24.5039 208.083 24.1211C207.308 23.8021 206.675 23.2598 206.183 22.4941C205.7 21.7285 205.458 20.8535 205.458 19.8691C205.458 18.2285 205.95 16.9661 206.935 16.082C207.919 15.1888 209.314 14.7422 211.118 14.7422C211.902 14.7422 212.608 14.8333 213.237 15.0156H218.419ZM206.47 32.5156C206.47 33.3268 206.812 33.9421 207.495 34.3613C208.179 34.7806 209.159 34.9902 210.435 34.9902C212.34 34.9902 213.748 34.7031 214.659 34.1289C215.58 33.5638 216.04 32.7936 216.04 31.8184C216.04 31.0072 215.789 30.4421 215.288 30.123C214.787 29.8132 213.843 29.6582 212.458 29.6582H209.737C208.707 29.6582 207.905 29.9043 207.331 30.3965C206.757 30.8887 206.47 31.5951 206.47 32.5156ZM207.7 19.8145C207.7 20.8626 207.996 21.6556 208.589 22.1934C209.181 22.7311 210.006 23 211.064 23C213.278 23 214.386 21.9245 214.386 19.7734C214.386 17.5221 213.265 16.3965 211.023 16.3965C209.956 16.3965 209.136 16.6836 208.562 17.2578C207.987 17.832 207.7 18.6842 207.7 19.8145ZM227.825 30.2734C225.61 30.2734 223.86 29.599 222.575 28.25C221.299 26.901 220.661 25.028 220.661 22.6309C220.661 20.2155 221.254 18.2969 222.439 16.875C223.633 15.4531 225.232 14.7422 227.237 14.7422C229.115 14.7422 230.601 15.362 231.694 16.6016C232.788 17.832 233.335 19.459 233.335 21.4824V22.918H223.013C223.058 24.6771 223.5 26.0124 224.339 26.9238C225.187 27.8353 226.376 28.291 227.907 28.291C229.521 28.291 231.116 27.9538 232.692 27.2793V29.3027C231.89 29.6491 231.129 29.8952 230.409 30.041C229.698 30.196 228.837 30.2734 227.825 30.2734ZM227.21 16.6426C226.007 16.6426 225.045 17.0345 224.325 17.8184C223.614 18.6022 223.195 19.6868 223.067 21.0723H230.901C230.901 19.6413 230.582 18.5475 229.944 17.791C229.306 17.0254 228.395 16.6426 227.21 16.6426ZM244.054 14.7422C244.719 14.7422 245.316 14.7969 245.845 14.9062L245.53 17.0117C244.911 16.875 244.364 16.8066 243.89 16.8066C242.677 16.8066 241.638 17.2988 240.773 18.2832C239.916 19.2676 239.487 20.4935 239.487 21.9609V30H237.218V15.0156H239.091L239.351 17.791H239.46C240.016 16.8158 240.686 16.0638 241.47 15.5352C242.254 15.0065 243.115 14.7422 244.054 14.7422Z" fill="white"/>
<defs>
<clipPath id="clip0_3715_24">
<rect width="39.3077" height="35" fill="white" transform="translate(0 1.5)"/>
</clipPath>
</defs>
</svg>
